<svg width="140" height="174" viewBox="0 0 140 174" fill="none" xmlns="http://www.w3.org/2000/svg">
<path d="M42.36 164C42.6267 164 42.84 163.92 43 163.76C43.16 163.6 43.24 163.387 43.24 163.12V136.92C43.24 136.627 43.16 136.4 43 136.24C42.84 136.08 42.6267 136 42.36 136H33.84C31.0133 136 28.8 136.413 27.2 137.24C25.6 138.067 24.4667 139.293 23.8 140.92C23.1067 142.52 22.7467 144.48 22.72 146.8C22.6933 148 22.68 149.067 22.68 150C22.68 150.907 22.6933 151.96 22.72 153.16C22.7733 155.613 23.1333 157.64 23.8 159.24C24.4667 160.84 25.5867 162.04 27.16 162.84C28.7333 163.613 30.8933 164 33.64 164H42.36ZM40.72 161.6H33.84C31.7067 161.6 30.0267 161.32 28.8 160.76C27.5467 160.173 26.6533 159.253 26.12 158C25.56 156.72 25.2667 155.04 25.24 152.96C25.2133 152.16 25.2 151.467 25.2 150.88C25.2 150.267 25.2 149.667 25.2 149.08C25.2 148.493 25.2133 147.8 25.24 147C25.2933 144.067 25.9733 141.907 27.28 140.52C28.5867 139.107 30.84 138.4 34.04 138.4H40.72V161.6Z" fill="#7F5AF0"/>
<path d="M50.64 164C50.3733 164 50.16 163.92 50 163.76C49.84 163.6 49.76 163.387 49.76 163.12V136.92C49.76 136.627 49.84 136.4 50 136.24C50.16 136.08 50.3733 136 50.64 136H59.16C61.9867 136 64.2 136.413 65.8 137.24C67.4 138.067 68.5333 139.293 69.2 140.92C69.8933 142.52 70.2533 144.48 70.28 146.8C70.3067 148 70.32 149.067 70.32 150C70.32 150.907 70.3067 151.96 70.28 153.16C70.2267 155.613 69.8667 157.64 69.2 159.24C68.5333 160.84 67.4133 162.04 65.84 162.84C64.2667 163.613 62.1067 164 59.36 164H50.64ZM52.28 161.6H59.16C61.2933 161.6 62.9733 161.32 64.2 160.76C65.4533 160.173 66.3467 159.253 66.88 158C67.44 156.72 67.7333 155.04 67.76 152.96C67.7867 152.16 67.8 151.467 67.8 150.88C67.8 150.267 67.8 149.667 67.8 149.08C67.8 148.493 67.7867 147.8 67.76 147C67.7067 144.067 67.0267 141.907 65.72 140.52C64.4133 139.107 62.16 138.4 58.96 138.4H52.28V161.6Z" fill="#2CB67D"/>
<path d="M77.7103 164C77.4436 164 77.2303 163.92 77.0703 163.76C76.9103 163.6 76.8303 163.387 76.8303 163.12V136.92C76.8303 136.627 76.9103 136.4 77.0703 136.24C77.2303 136.08 77.4436 136 77.7103 136H93.3103C93.6036 136 93.8303 136.08 93.9903 136.24C94.1503 136.4 94.2303 136.627 94.2303 136.92V137.52C94.2303 137.787 94.1503 138 93.9903 138.16C93.8303 138.32 93.6036 138.4 93.3103 138.4H79.3503V148.6H92.4303C92.7236 148.6 92.9503 148.68 93.1103 148.84C93.2703 149 93.3503 149.227 93.3503 149.52V150.12C93.3503 150.387 93.2703 150.6 93.1103 150.76C92.9503 150.92 92.7236 151 92.4303 151H79.3503V161.6H93.6303C93.9236 161.6 94.1503 161.68 94.3103 161.84C94.4703 162 94.5503 162.227 94.5503 162.52V163.12C94.5503 163.387 94.4703 163.6 94.3103 163.76C94.1503 163.92 93.9236 164 93.6303 164H77.7103ZM108.552 164C108.205 164 107.925 163.92 107.712 163.76C107.498 163.6 107.325 163.36 107.192 163.04L97.9116 137.24C97.8582 137.08 97.8316 136.933 97.8316 136.8C97.8316 136.587 97.9116 136.4 98.0716 136.24C98.2316 136.08 98.4182 136 98.6316 136H99.4716C99.7382 136 99.9382 136.08 100.072 136.24C100.232 136.373 100.325 136.493 100.352 136.6L109.112 161.08L117.872 136.6C117.925 136.493 118.018 136.373 118.152 136.24C118.285 136.08 118.485 136 118.752 136H119.592C119.805 136 119.992 136.08 120.152 136.24C120.312 136.4 120.392 136.587 120.392 136.8C120.392 136.933 120.365 137.08 120.312 137.24L111.032 163.04C110.925 163.36 110.765 163.6 110.552 163.76C110.338 163.92 110.045 164 109.672 164H108.552Z" fill="white"/>
<path d="M103.426 46.0406C100.581 45.7583 98.3301 43.5075 98.0479 40.6622L96.9328 29.4215C96.3764 23.8126 103.161 20.601 107.146 24.5865L119.502 36.9423C123.487 40.9278 120.276 47.712 114.667 47.1556L103.426 46.0406Z" fill="#2CB67D"/>
<g filter="url(#filter0_d_313_126)">
<path d="M68.2341 73.7859C68.2341 72.725 68.6555 71.7076 69.4057 70.9575L110.69 29.673C111.081 29.2825 111.715 29.2825 112.105 29.673L132.226 49.7941C134.569 52.1372 134.569 55.9363 132.226 58.2795L75.0625 115.443C72.5427 117.963 68.2341 116.178 68.2341 112.615L68.2341 73.7859Z" fill="#2CB67D"/>
</g>
<path d="M35.6684 70.5828C38.5138 70.865 40.7646 73.1159 41.0468 75.9612L42.1619 87.2019C42.7183 92.8107 35.9341 96.0223 31.9486 92.0368L19.5928 79.681C15.6073 75.6956 18.8189 68.9113 24.4277 69.4677L35.6684 70.5828Z" fill="#7F5AF0"/>
<g filter="url(#filter1_d_313_126)">
<path d="M70.86 42.8369C70.86 43.8978 70.4386 44.9152 69.6884 45.6653L28.4039 86.9508C28.0135 87.341 27.3804 87.3409 26.9899 86.9508L6.86779 66.8287C4.52491 64.4856 4.52478 60.6864 6.86779 58.3433L64.0316 1.1796C66.5514 -1.34026 70.86 0.444408 70.86 4.00803L70.86 42.8369Z" fill="#7F5AF0"/>
</g>
<defs>
<filter id="filter0_d_313_126" x="64.2341" y="21.3801" width="73.7495" height="95.2427" filterUnits="userSpaceOnUse" color-interpolation-filters="sRGB">
<feFlood flood-opacity="0" result="BackgroundImageFix"/>
<feColorMatrix in="SourceAlpha" type="matrix" values="0 0 0 0 0 0 0 0 0 0 0 0 0 0 0 0 0 0 127 0" result="hardAlpha"/>
<feOffset dy="-4"/>
<feGaussianBlur stdDeviation="2"/>
<feComposite in2="hardAlpha" operator="out"/>
<feColorMatrix type="matrix" values="0 0 0 0 0 0 0 0 0 0 0 0 0 0 0 0 0 0 0.25 0"/>
<feBlend mode="normal" in2="BackgroundImageFix" result="effect1_dropShadow_313_126"/>
<feBlend mode="normal" in="SourceGraphic" in2="effect1_dropShadow_313_126" result="shape"/>
</filter>
<filter id="filter1_d_313_126" x="1.1106" y="0" width="73.7495" height="95.2434" filterUnits="userSpaceOnUse" color-interpolation-filters="sRGB">
<feFlood flood-opacity="0" result="BackgroundImageFix"/>
<feColorMatrix in="SourceAlpha" type="matrix" values="0 0 0 0 0 0 0 0 0 0 0 0 0 0 0 0 0 0 127 0" result="hardAlpha"/>
<feOffset dy="4"/>
<feGaussianBlur stdDeviation="2"/>
<feComposite in2="hardAlpha" operator="out"/>
<feColorMatrix type="matrix" values="0 0 0 0 0 0 0 0 0 0 0 0 0 0 0 0 0 0 0.25 0"/>
<feBlend mode="normal" in2="BackgroundImageFix" result="effect1_dropShadow_313_126"/>
<feBlend mode="normal" in="SourceGraphic" in2="effect1_dropShadow_313_126" result="shape"/>
</filter>
</defs>
</svg>
